mastitorrents.com
  
http://mastitorrents.com/forums/index.php







----------------------------------------------------------------------------------------------------
----------------------------------------------------------------------------------------------------

LIKE US @ FACEBOOK


1. ---&gt; http://urlgator.com/efyQx   [MastiTorrentsReleasers]

2. ---&gt; http://urlgator.com/FG4tl   [MastiTorrents]


[OR]



Search for "MastiTorrentsReleasers" and "MastiTorrents" 



We are waiting for you!!!



----------------------------------------------------------------------------------------------------
----------------------------------------------------------------------------------------------------





****************************************************************************************************
****************************************************************************************************





8b    d8    db    .dP"Y8 888888 88 888888  dP"Yb  88""Yb 88""Yb 888888 88b 88 888888 .dP"Y8 
88b  d88   dPYb   `Ybo."   88   88   88   dP   Yb 88__dP 88__dP 88__   88Yb88   88   `Ybo." 
88YbdP88  dP__Yb  o.`Y8b   88   88   88   Yb   dP 88"Yb  88"Yb  88""   88 Y88   88   o.`Y8b 
88 YY 88 dP""""Yb 8bodP'   88   88   88    YbodP  88  Yb 88  Yb 888888 88  Y8   88   8bodP' 




****************************************************************************************************
****************************************************************************************************




====================================================================================================

                        MASTI TORRENTS RELEASERS [ MTR ]

                            Where Quality Matters!

====================================================================================================









description:



General
Complete name : Mugguru (2011) (Audio Cleaned) - 1CD - PDvd - Rip - XviD - MP3
Format : MPEG-4
Format profile : Base Media
Codec ID : isom
File size : 663 MiB
Duration : 2h 7mn
Overall bit rate : 728 Kbps
Encoded date : UTC 2011-08-23 20:14:37
Tagged date : UTC 2011-08-23 20:14:37
Writing application : Lavf51.12.1

Video
ID : 1
Format : AVC
Format/Info : Advanced Video Codec
Format profile : Baseline@L1.3
Format settings, CABAC : No
Format settings, ReFrames : 1 frame
Format settings, GOP : M=1, N=12
Codec ID : avc1
Codec ID/Info : Advanced Video Coding
Duration : 2h 7mn
Bit rate mode : Variable
Bit rate : 571 Kbps
Width : 536 pixels
Height : 240 pixels
Display aspect ratio : 2.25:1
Frame rate mode : Constant
Frame rate : 29.970 fps
Color space : YUV
Chroma subsampling : 4:2:0
Bit depth : 8 bits
Scan type : Progressive
Bits/(Pixel*Frame) : 0.148
Stream size : 520 MiB (78%)
Encoded date : UTC 2011-08-23 20:14:37
Tagged date : UTC 2011-08-23 20:14:37

Audio
ID : 2
Format : AAC
Format/Info : Advanced Audio Codec
Format profile : LC
Codec ID : 40
Duration : 2h 7mn
Bit rate mode : Variable
Bit rate : 152 Kbps
Channel(s) : 2 channels
Channel positions : Front: L R
Sampling rate : 44.1 KHz
Compression mode : Lossy
Stream size : 138 MiB (21%)
Encoded date : UTC 2011-08-23 20:14:37
Tagged date : UTC 2011-08-23 20:14:37

Credits : Original Releaser 






Screens/Covers:
 
http://www.shotpix.com/images/10534414004701812236.png 
http://www.shotpix.com/images/33494954291659117033.png 
http://www.shotpix.com/images/85971350035503854143.png 
http://www.shotpix.com/images/02339710772375153240.png 
http://www.shotpix.com/images/97352703701083320742.png 
http://www.shotpix.com/images/60376502917269786546.png 
http://www.shotpix.com/images/50857249021161683293.png 
http://www.shotpix.com/images/47641668516576266010.png 
http://www.shotpix.com/images/77974707224506968015.png 
http://www.shotpix.com/images/81534526199126354296.png






****check out my other releases****

 
http://thepiratebay.org/user/tdkdemon/













    &lt;&lt;&lt;&lt;&lt;&lt;&lt;SUPERFAST RELEASES BROUGHT TO YOU BY&gt;&gt;&gt;&gt;&gt;&gt;

          


                                  Masti Torrents Releasers [ MTR ]





            8888b.  888888 8b    d8  dP"Yb  88b 88     88888 8b    d8 888888 88""Yb 88888 
             8I  Yb 88__   88b  d88 dP   Yb 88Yb88     88    88b  d88   88   88__dP    88 
             8I  dY 88""   88YbdP88 Yb   dP 88 Y88     88    88YbdP88   88   88"Yb     88 
            8888Y"  888888 88 YY 88  YbodP  88  Y8     88888 88 YY 88   88   88  Yb 88888 
